REM DIRINDEX 1\2\6,1\2\7,1\2\8,1\3\9,1\3\10,1\3\11,1\4\12,1\4\13,1\4\14,1\5\15,1\5\16,1\5\17,1\5\18
REM DIRNAME folder01,folder02,folder03,folder04,folder05,folder06,folder07,folder08,folder09,folder10,folder11,folder12,folder13,folder14,folder15,folder16,folder17,folder18
TITLE ""
FILE "2Q_k_081-090.mp3" MP3
  TRACK 01 AUDIO
    TITLE "9:cjc019_1903"
    INDEX 01 00:00:00
  TRACK 02 AUDIO
    TITLE "0:"
    INDEX 01 00:01:15
  TRACK 03 AUDIO
    TITLE "10:cjc019_1904"
    INDEX 01 00:01:73
  TRACK 04 AUDIO
    TITLE "0:"
    INDEX 01 00:03:33
  TRACK 05 AUDIO
    TITLE "11:cjc019_1905"
    INDEX 01 00:04:19
  TRACK 06 AUDIO
    TITLE "11:cjc019_1906"
    INDEX 01 00:07:64
  TRACK 07 AUDIO
    TITLE "0:"
    INDEX 01 00:10:66
  TRACK 08 AUDIO
    TITLE "9:cjc019_1907"
    INDEX 01 00:11:44
  TRACK 09 AUDIO
    TITLE "0:"
    INDEX 01 00:13:18
  TRACK 10 AUDIO
    TITLE "10:cjc019_1908"
    INDEX 01 00:13:65
  TRACK 11 AUDIO
    TITLE "0:"
    INDEX 01 00:15:68
  TRACK 12 AUDIO
    TITLE "11:cjc019_1909"
    INDEX 01 00:16:46
  TRACK 13 AUDIO
    TITLE "11:cjc019_1910"
    INDEX 01 00:20:26
  TRACK 14 AUDIO
    TITLE "0:"
    INDEX 01 00:21:39
  TRACK 15 AUDIO
    TITLE "9:cjc019_1911"
    INDEX 01 00:22:23
  TRACK 16 AUDIO
    TITLE "0:"
    INDEX 01 00:24:12
  TRACK 17 AUDIO
    TITLE "10:cjc019_1912"
    INDEX 01 00:24:71
  TRACK 18 AUDIO
    TITLE "0:"
    INDEX 01 00:27:47
  TRACK 19 AUDIO
    TITLE "11:cjc019_1913"
    INDEX 01 00:28:27
  TRACK 20 AUDIO
    TITLE "11:cjc019_1914"
    INDEX 01 00:36:33
  TRACK 21 AUDIO
    TITLE "0:"
    INDEX 01 00:38:31
  TRACK 22 AUDIO
    TITLE "9:cjc019_1915"
    INDEX 01 00:39:09
  TRACK 23 AUDIO
    TITLE "0:"
    INDEX 01 00:41:24
  TRACK 24 AUDIO
    TITLE "10:cjc019_1916"
    INDEX 01 00:42:02
  TRACK 25 AUDIO
    TITLE "0:"
    INDEX 01 00:43:39
  TRACK 26 AUDIO
    TITLE "11:cjc019_1917"
    INDEX 01 00:44:14
  TRACK 27 AUDIO
    TITLE "11:cjc019_1918"
    INDEX 01 00:48:63
  TRACK 28 AUDIO
    TITLE "0:"
    INDEX 01 00:50:56
  TRACK 29 AUDIO
    TITLE "9:cjc019_1919"
    INDEX 01 00:51:38
  TRACK 30 AUDIO
    TITLE "0:"
    INDEX 01 00:53:02
  TRACK 31 AUDIO
    TITLE "10:cjc019_1920"
    INDEX 01 00:53:60
  TRACK 32 AUDIO
    TITLE "0:"
    INDEX 01 00:56:31
  TRACK 33 AUDIO
    TITLE "11:cjc019_1921"
    INDEX 01 00:57:07
  TRACK 34 AUDIO
    TITLE "11:cjc019_1922"
    INDEX 01 00:59:55
  TRACK 35 AUDIO
    TITLE "0:"
    INDEX 01 01:03:06
  TRACK 36 AUDIO
    TITLE "9:cjc019_1923"
    INDEX 01 01:03:59
  TRACK 37 AUDIO
    TITLE "0:"
    INDEX 01 01:05:32
  TRACK 38 AUDIO
    TITLE "10:cjc019_1924"
    INDEX 01 01:06:14
  TRACK 39 AUDIO
    TITLE "0:"
    INDEX 01 01:07:41
  TRACK 40 AUDIO
    TITLE "11:cjc019_1925"
    INDEX 01 01:08:23
  TRACK 41 AUDIO
    TITLE "11:cjc019_1926"
    INDEX 01 01:12:03
  TRACK 42 AUDIO
    TITLE "0:"
    INDEX 01 01:14:66
  TRACK 43 AUDIO
    TITLE "9:cjc019_1927"
    INDEX 01 01:15:48
  TRACK 44 AUDIO
    TITLE "0:"
    INDEX 01 01:17:30
  TRACK 45 AUDIO
    TITLE "10:cjc019_1928"
    INDEX 01 01:18:13
  TRACK 46 AUDIO
    TITLE "0:"
    INDEX 01 01:19:60
  TRACK 47 AUDIO
    TITLE "11:cjc019_1929"
    INDEX 01 01:20:32
  TRACK 48 AUDIO
    TITLE "11:cjc019_1930"
    INDEX 01 01:23:22
  TRACK 49 AUDIO
    TITLE "11:cjc019_1931"
    INDEX 01 01:26:38
  TRACK 50 AUDIO
    TITLE "0:"
    INDEX 01 01:29:17
  TRACK 51 AUDIO
    TITLE "9:cjc019_1932"
    INDEX 01 01:29:72
  TRACK 52 AUDIO
    TITLE "0:"
    INDEX 01 01:31:41
  TRACK 53 AUDIO
    TITLE "10:cjc019_1933"
    INDEX 01 01:32:25
  TRACK 54 AUDIO
    TITLE "0:"
    INDEX 01 01:34:69
  TRACK 55 AUDIO
    TITLE "11:cjc019_1934"
    INDEX 01 01:35:49
  TRACK 56 AUDIO
    TITLE "11:cjc019_1935"
    INDEX 01 01:39:17
  TRACK 57 AUDIO
    TITLE "0:"
    INDEX 01 01:45:00
  TRACK 58 AUDIO
    TITLE "9:cjc019_1936"
    INDEX 01 01:45:61
  TRACK 59 AUDIO
    TITLE "0:"
    INDEX 01 01:47:27
  TRACK 60 AUDIO
    TITLE "10:cjc019_1937"
    INDEX 01 01:48:09
  TRACK 61 AUDIO
    TITLE "0:"
    INDEX 01 01:49:24
  TRACK 62 AUDIO
    TITLE "11:cjc019_1938"
    INDEX 01 01:50:02
  TRACK 63 AUDIO
    TITLE "11:cjc019_1939"
    INDEX 01 01:53:61
  TRACK 64 AUDIO
    TITLE "0:"
    INDEX 01 01:58:72
  TRACK 65 AUDIO
    TITLE "9:cjc019_1940"
    INDEX 01 01:59:53
  TRACK 66 AUDIO
    TITLE "0:"
    INDEX 01 02:01:56
  TRACK 67 AUDIO
    TITLE "10:cjc019_1941"
    INDEX 01 02:02:30
  TRACK 68 AUDIO
    TITLE "0:"
    INDEX 01 02:04:33
  TRACK 69 AUDIO
    TITLE "11:cjc019_1942"
    INDEX 01 02:05:11
  TRACK 70 AUDIO
    TITLE "11:cjc019_1943"
    INDEX 01 02:09:54
  TRACK 71 AUDIO
    TITLE "0:"
    INDEX 01 02:12:29
